<?xml version="1.0" encoding="UTF-8" standalone="no"?>
<!-- Created with Inkscape (http://www.inkscape.org/) -->

<svg
   xmlns:dc="http://purl.org/dc/elements/1.1/"
   xmlns:cc="http://creativecommons.org/ns#"
   xmlns:rdf="http://www.w3.org/1999/02/22-rdf-syntax-ns#"
   xmlns:svg="http://www.w3.org/2000/svg"
   xmlns="http://www.w3.org/2000/svg"
   xmlns:sodipodi="http://sodipodi.sourceforge.net/DTD/sodipodi-0.dtd"
   xmlns:inkscape="http://www.inkscape.org/namespaces/inkscape"
   id="svg1325"
   sodipodi:version="0.32"
   inkscape:version="0.92.2 2405546, 2018-03-11"
   width="32"
   height="32"
   sodipodi:docname="Cc-by_new_white.svg"
   version="1.0">
  <metadata
     id="metadata1330">
    <rdf:RDF>
      <cc:Work
         rdf:about="">
        <dc:format>image/svg+xml</dc:format>
        <dc:type
           rdf:resource="http://purl.org/dc/dcmitype/StillImage" />
        <dc:title></dc:title>
      </cc:Work>
    </rdf:RDF>
  </metadata>
  <defs
     id="defs1328" />
  <sodipodi:namedview
     inkscape:window-height="1005"
     inkscape:window-width="1280"
     inkscape:pageshadow="2"
     inkscape:pageopacity="0.0"
     borderopacity="1.0"
     bordercolor="#666666"
     pagecolor="#ffffff"
     id="base"
     fill="#000000"
     inkscape:zoom="1.88"
     inkscape:cx="16"
     inkscape:cy="32.001546"
     inkscape:window-x="84"
     inkscape:window-y="0"
     inkscape:current-layer="layer3"
     showgrid="false"
     inkscape:window-maximized="0" />
  <g
     inkscape:groupmode="layer"
     id="layer3"
     inkscape:label="Dessin"
     style="display:inline"
     transform="translate(0,-32)">
    <ellipse
       style="opacity:1;fill:#ffffff;fill-opacity:1;fill-rule:evenodd;stroke:none;stroke-width:0.01471118;stroke-linecap:butt;stroke-linejoin:miter;stroke-miterlimit:4;stroke-dasharray:none;stroke-dashoffset:0;stroke-opacity:1"
       id="path7255"
       cx="16"
       cy="48.000774"
       rx="13.523414"
       ry="13.52276" />
    <path
       style="opacity:1;fill:#aaa;fill-opacity:1;fill-rule:nonzero;stroke:none;stroke-width:129.75035095;stroke-linecap:butt;stroke-linejoin:round;stroke-miterlimit:4;stroke-dasharray:none;stroke-dashoffset:0;stroke-opacity:1"
       d="M 15.59375,32.001546 C 6.9522625,32.220713 0,39.307195 0,48.000773 0,56.832344 7.168002,64 16,64 24.831998,64 32,56.832344 32,48.000773 32,39.169202 24.831998,32.001546 16,32.001546 c -0.138,0 -0.269084,-0.0035 -0.40625,0 z m -0.01563,2.749867 c 0.141766,-0.0045 0.279023,0 0.421875,0 7.314001,0 13.25,5.935712 13.25,13.24936 4e-6,7.313647 -5.935994,13.24936 -13.249995,13.24936 -7.3140005,-10e-7 -13.25,-5.935712 -13.25,-13.24936 0,-7.170803 5.7114575,-13.023729 12.828125,-13.24936 z"
       id="path1334"
       inkscape:connector-curvature="0" />
    <g
       id="g6525"
       transform="matrix(0.5,0,0,0.49997584,0,32.001546)">
      <circle
         transform="translate(-0.0625,0.185547)"
         id="path2838"
         style="opacity:1;fill:#aaa;fill-opacity:1;fill-rule:evenodd;stroke:none;stroke-width:0.03;stroke-linecap:butt;stroke-linejoin:miter;stroke-miterlimit:4;stroke-dasharray:none;stroke-dashoffset:0;stroke-opacity:1"
         cx="32.0625"
         cy="15.75"
         r="4.625" />
      <path
         sodipodi:nodetypes="ccccssccssccc"
         d="m 27.215125,52.689453 h 9.56975 V 37.310548 h 2.893008 c 0,0 -0.0011,-10.990367 0,-12.720111 -0.0028,-0.456306 0.04119,-1.365057 -0.620739,-2.026989 -0.661932,-0.661932 -1.555399,-0.621804 -2.02699,-0.620739 -0.47159,0.0011 -9.588717,0.0011 -10.060308,0 -0.471591,-0.0011 -1.365057,-0.04119 -2.026989,0.620739 -0.661933,0.661932 -0.617898,1.570683 -0.620739,2.026989 0.0011,1.729744 0,12.720111 0,12.720111 h 2.893007 z"
         style="opacity:1;fill:#aaa;fill-opacity:1;fill-rule:evenodd;stroke:none;stroke-width:1px;stroke-linecap:butt;stroke-linejoin:miter;stroke-opacity:1"
         id="path3572"
         inkscape:connector-curvature="0" />
    </g>
  </g>
</svg>
