<?xml version="1.0" encoding="UTF-8" standalone="no"?>
<!-- Created with Inkscape (http://www.inkscape.org/) -->

<svg
   xmlns:dc="http://purl.org/dc/elements/1.1/"
   xmlns:cc="http://creativecommons.org/ns#"
   xmlns:rdf="http://www.w3.org/1999/02/22-rdf-syntax-ns#"
   xmlns:svg="http://www.w3.org/2000/svg"
   xmlns="http://www.w3.org/2000/svg"
   xmlns:sodipodi="http://sodipodi.sourceforge.net/DTD/sodipodi-0.dtd"
   xmlns:inkscape="http://www.inkscape.org/namespaces/inkscape"
   id="svg1325"
   sodipodi:version="0.32"
   inkscape:version="0.92.2 2405546, 2018-03-11"
   width="32"
   height="32"
   sodipodi:docname="Cc-sa_white.svg"
   version="1.0">
  <metadata
     id="metadata1330">
    <rdf:RDF>
      <cc:Work
         rdf:about="">
        <dc:format>image/svg+xml</dc:format>
        <dc:type
           rdf:resource="http://purl.org/dc/dcmitype/StillImage" />
        <dc:title></dc:title>
      </cc:Work>
    </rdf:RDF>
  </metadata>
  <defs
     id="defs1328" />
  <sodipodi:namedview
     inkscape:window-height="702"
     inkscape:window-width="1065"
     inkscape:pageshadow="2"
     inkscape:pageopacity="0.0"
     borderopacity="1.0"
     bordercolor="#666666"
     pagecolor="#ffffff"
     id="base"
     fill="#000000"
     inkscape:zoom="1.75"
     inkscape:cx="16"
     inkscape:cy="32.001546"
     inkscape:window-x="84"
     inkscape:window-y="114"
     inkscape:current-layer="svg1325"
     showgrid="false"
     inkscape:window-maximized="0" />
  <path
     style="opacity:1;fill:#aaa;fill-opacity:1;fill-rule:nonzero;stroke:none;stroke-width:129.75035095;stroke-linecap:butt;stroke-linejoin:round;stroke-miterlimit:4;stroke-dasharray:none;stroke-dashoffset:0;stroke-opacity:1"
     d="M 15.59375,0.001546 C 6.9522625,0.220713 0,7.307195 0,16.000773 0,24.832344 7.168002,32 16,32 24.831998,32 32,24.832344 32,16.000773 32,7.169202 24.831998,0.001546 16,0.001546 c -0.138,0 -0.269084,-0.0035 -0.40625,0 z m -0.01563,2.749867 c 0.141766,-0.0045 0.279023,0 0.421875,0 7.314001,0 13.25,5.935712 13.25,13.24936 C 29.249999,23.31442 23.314001,29.250133 16,29.250133 8.6859995,29.250132 2.75,23.314421 2.75,16.000773 2.75,8.82997 8.4614575,2.977044 15.578125,2.751413 Z"
     id="path1334"
     inkscape:connector-curvature="0" />
  <ellipse
     style="opacity:1;fill:#ffffff;fill-opacity:1;fill-rule:nonzero;stroke:none;stroke-width:129.43688965;stroke-linecap:butt;stroke-linejoin:round;stroke-miterlimit:4;stroke-dasharray:none;stroke-dashoffset:0;stroke-opacity:1"
     id="path1336"
     cx="15.999999"
     cy="16.000774"
     rx="13.250002"
     ry="13.249362" />
  <path
     style="opacity:1;fill:#aaa;fill-opacity:1;fill-rule:nonzero;stroke:none;stroke-width:129.75035095;stroke-linecap:butt;stroke-linejoin:round;stroke-miterlimit:4;stroke-dasharray:none;stroke-dashoffset:0;stroke-opacity:1"
     d="m 9.0578895,13.393173 h -1.370389 l 3.1093755,3.484206 3.109375,-3.484206 h -1.121926 c 0.243049,-1.699818 1.738435,-2.793078 3.465675,-2.656122 0.06828,0.0054 0.133927,0 0.203125,0 2.813715,0 3.92341,2.12783 4.015625,5.26537 0.09624,3.274442 -1.801745,5.309932 -4.015625,5.265371 -2.336692,-0.0461 -3.222024,-1.163699 -3.562499,-2.859237 H 8.7187505 c 0.6865885,3.905427 3.5619275,6.195719 7.6406245,6.202826 4.61729,0.0081 7.953125,-3.854488 7.953125,-8.60896 0,-5.077201 -3.334685,-8.608959 -7.953125,-8.608959 -0.137122,0 -0.270826,-0.0074 -0.406249,0 -0.0328,0.0018 -0.06098,-5.49e-4 -0.09375,0 -2.886105,0.04798 -6.801465,2.069771 -6.8014865,5.999711 z"
     id="path2371"
     sodipodi:nodetypes="cccccssssccsssssc"
     inkscape:connector-curvature="0" />
</svg>
