<?xml version="1.0" encoding="UTF-8" standalone="no"?>
<svg
   xmlns:dc="http://purl.org/dc/elements/1.1/"
   xmlns:cc="http://creativecommons.org/ns#"
   xmlns:rdf="http://www.w3.org/1999/02/22-rdf-syntax-ns#"
   xmlns:svg="http://www.w3.org/2000/svg"
   xmlns="http://www.w3.org/2000/svg"
   xmlns:sodipodi="http://sodipodi.sourceforge.net/DTD/sodipodi-0.dtd"
   xmlns:inkscape="http://www.inkscape.org/namespaces/inkscape"
   height="32"
   width="32"
   version="1.1"
   x="0px"
   y="0px"
   viewBox="0 0 16 16"
   enable-background="new 0 0 100 100"
   xml:space="preserve"
   id="svg8"
   sodipodi:docname="Cc.svg"
   style="fill:#000000"
   inkscape:version="0.92.2 2405546, 2018-03-11"><metadata
     id="metadata14"><rdf:RDF><cc:Work
         rdf:about=""><dc:format>image/svg+xml</dc:format><dc:type
           rdf:resource="http://purl.org/dc/dcmitype/StillImage" /><dc:title></dc:title></cc:Work></rdf:RDF></metadata><defs
     id="defs12" /><sodipodi:namedview
     pagecolor="#ffffff"
     bordercolor="#666666"
     borderopacity="1"
     objecttolerance="10"
     gridtolerance="10"
     guidetolerance="10"
     inkscape:pageopacity="0"
     inkscape:pageshadow="2"
     inkscape:window-width="1344"
     inkscape:window-height="883"
     id="namedview10"
     showgrid="false"
     inkscape:zoom="1.18"
     inkscape:cx="100"
     inkscape:cy="100"
     inkscape:window-x="84"
     inkscape:window-y="0"
     inkscape:window-maximized="0"
     inkscape:current-layer="svg8" /><path
     d="m 5.744,10.683428 c 0.678476,0 1.325905,-0.253904 1.823429,-0.714476 0.154286,-0.142857 0.163428,-0.384 0.02057,-0.538286 C 7.444952,9.27619 7.203999,9.267048 7.049524,9.410096 6.693524,9.740001 6.229714,9.921715 5.744,9.921715 c -1.059619,0 -1.921524,-0.862096 -1.921524,-1.921524 0,-1.059428 0.861905,-1.921524 1.921524,-1.921524 0.485333,0 0.948571,0.181334 1.304571,0.510667 0.154476,0.142857 0.395428,0.133523 0.538476,-0.02095 0.142857,-0.154476 0.133524,-0.395429 -0.02095,-0.538286 -0.497143,-0.46 -1.14419,-0.713333 -1.821905,-0.713333 -1.479809,0 -2.683428,1.20381 -2.683428,2.683429 0,1.479619 1.203428,2.683238 2.683238,2.683238 z"
     id="path2"
     inkscape:connector-curvature="0"
     style="fill:#aaa;stroke-width:0.19047619" /><path
     d="m 10.886857,10.683428 c 0.678477,0 1.325905,-0.253904 1.823428,-0.714476 0.154286,-0.142857 0.163429,-0.384 0.02057,-0.538286 -0.143047,-0.154476 -0.384,-0.163618 -0.538476,-0.02057 -0.356,0.329905 -0.819809,0.511619 -1.305524,0.511619 -1.059619,0 -1.921523,-0.862096 -1.921523,-1.921524 0,-1.059428 0.861904,-1.921524 1.921523,-1.921524 0.485334,0 0.948572,0.181334 1.304572,0.510667 0.154476,0.142857 0.395428,0.133523 0.538476,-0.02095 0.142857,-0.154476 0.133524,-0.395429 -0.02095,-0.538286 -0.497143,-0.46 -1.14419,-0.713333 -1.821905,-0.713333 -1.479809,0 -2.683428,1.20381 -2.683428,2.683429 0,1.479619 1.203428,2.683238 2.683238,2.683238 z"
     id="path4"
     inkscape:connector-curvature="0"
     style="fill:#aaa;stroke-width:0.19047619" /><path
     d="m 8,16 c 4.336381,0 8,-3.663429 8,-8 C 16,3.663429 12.336381,0 8,0 3.663619,0 0,3.663429 0,8 c 0,4.336571 3.663619,8 8,8 z M 8,0.761905 c 3.923428,0 7.238095,3.314666 7.238095,7.238095 0,3.923428 -3.314667,7.238095 -7.238095,7.238095 C 4.076572,15.238095 0.7619047,11.923428 0.7619047,8 0.7619047,4.076571 4.076572,0.761905 8,0.761905 Z"
     id="path6"
     inkscape:connector-curvature="0"
     style="fill:#aaa;stroke-width:0.19047619" /></svg>
